<svg xmlns="http://www.w3.org/2000/svg" xmlns:xlink="http://www.w3.org/1999/xlink" viewBox="0 0 800 1131.64"><defs><style>.cls-1{fill:#120c0f;}.cls-2,.cls-31{font-size:14px;}.cls-2,.cls-4,.cls-41,.cls-42{fill:#fff;}.cls-2,.cls-42{font-family:RobotoMono-Light, Roboto Mono;font-weight:300;}.cls-26,.cls-29,.cls-3,.cls-37,.cls-38{opacity:0.3;}.cls-5,.cls-7,.cls-8{opacity:0.15;}.cls-16,.cls-25,.cls-26,.cls-28,.cls-29,.cls-30,.cls-31,.cls-32,.cls-33,.cls-34,.cls-36,.cls-37,.cls-38,.cls-40,.cls-5,.cls-7,.cls-8{isolation:isolate;}.cls-5{fill:url(#Degradado_sin_nombre);}.cls-13,.cls-26,.cls-29,.cls-30,.cls-37,.cls-39,.cls-6,.cls-9{fill:none;}.cls-7{fill:url(#Degradado_sin_nombre_2);}.cls-8{fill:url(#Degradado_sin_nombre_3);}.cls-13,.cls-30,.cls-9{stroke-miterlimit:10;}.cls-9{stroke:url(#Degradado_sin_nombre_4);}.cls-10{fill:#ceb98e;}.cls-11{opacity:0.2;}.cls-12{fill:url(#Degradado_sin_nombre_5);}.cls-13,.cls-30{stroke:#fff;}.cls-13,.cls-26,.cls-29,.cls-30,.cls-37,.cls-39{stroke-linecap:round;}.cls-13,.cls-26,.cls-29,.cls-37,.cls-39{stroke-width:0.5px;}.cls-14{fill:url(#Degradado_sin_nombre_6);}.cls-15{fill:url(#Degradado_sin_nombre_7);}.cls-16,.cls-17,.cls-30{opacity:0.5;}.cls-16{fill:url(#Degradado_sin_nombre_8);}.cls-18{fill:url(#Degradado_sin_nombre_9);}.cls-19{fill:url(#Degradado_sin_nombre_10);}.cls-20{fill:url(#Degradado_sin_nombre_11);}.cls-21{fill:url(#Degradado_sin_nombre_12);}.cls-22{fill:url(#Degradado_sin_nombre_13);}.cls-23{fill:url(#Degradado_sin_nombre_14);}.cls-24{fill:url(#Degradado_sin_nombre_15);}.cls-25,.cls-28,.cls-33,.cls-34{opacity:0.1;}.cls-25{fill:url(#Degradado_sin_nombre_16);}.cls-26,.cls-29,.cls-37,.cls-39{stroke-linejoin:round;}.cls-26{stroke:url(#Degradado_sin_nombre_17);}.cls-27{fill:#548c95;}.cls-28{fill:url(#Degradado_sin_nombre_18);}.cls-29{stroke:url(#Degradado_sin_nombre_19);}.cls-30{stroke-dasharray:0 2;}.cls-31{fill:#bba67c;}.cls-31,.cls-41{font-family:RobotoMono-Bold, Roboto Mono;font-weight:700;}.cls-32,.cls-36{opacity:0.05;}.cls-32{fill:url(#Degradado_sin_nombre_20);}.cls-33{fill:url(#Degradado_sin_nombre_21);}.cls-35{fill:url(#Degradado_sin_nombre_22);}.cls-36{fill:url(#Degradado_sin_nombre_23);}.cls-37{stroke:url(#Degradado_sin_nombre_25);}.cls-39{stroke:url(#Degradado_sin_nombre_26);}.cls-40{fill:#110c0f;opacity:0.8;}.cls-41,.cls-42{font-size:16px;}</style><linearGradient id="Degradado_sin_nombre" x1="231.2" y1="-3110.47" x2="231.2" y2="-3468.71" gradientTransform="translate(0 3873.07)" gradientUnits="userSpaceOnUse"><stop offset="0" stop-color="#fff"/><stop offset="0.14" stop-color="#fff" stop-opacity="0.94"/><stop offset="1" stop-color="#fff" stop-opacity="0.6"/></linearGradient><linearGradient id="Degradado_sin_nombre_2" x1="301.4" y1="-3367.62" x2="401.9" y2="-3367.62" xlink:href="#Degradado_sin_nombre"/><linearGradient id="Degradado_sin_nombre_3" x1="362.67" y1="-3214.47" x2="387.13" y2="-3214.47" gradientTransform="translate(0 3873.07)" gradientUnits="userSpaceOnUse"><stop offset="0" stop-color="#fff"/><stop offset="0.08" stop-color="#fff" stop-opacity="0.7"/><stop offset="0.09" stop-color="#fff" stop-opacity="0.73"/><stop offset="0.14" stop-color="#fff" stop-opacity="0.94"/><stop offset="1" stop-color="#fff" stop-opacity="0.6"/></linearGradient><linearGradient id="Degradado_sin_nombre_4" x1="2403.59" y1="3866.08" x2="2523.14" y2="3866.08" gradientTransform="matrix(0.46, -0.89, -0.89, -0.46, 2506.43, 4740.56)" gradientUnits="userSpaceOnUse"><stop offset="0" stop-color="#fff" stop-opacity="0"/><stop offset="1" stop-color="#ceb98e"/></linearGradient><linearGradient id="Degradado_sin_nombre_5" x1="208.51" y1="2556.35" x2="233.43" y2="2556.35" gradientTransform="matrix(1, 0, 0, -1, 0, 3228.93)" gradientUnits="userSpaceOnUse"><stop offset="0" stop-color="#fff"/><stop offset="1" stop-color="#fff" stop-opacity="0"/></linearGradient><linearGradient id="Degradado_sin_nombre_6" x1="498.18" y1="-3482.44" x2="604.68" y2="-3514.84" gradientTransform="translate(0 3873.07)" gradientUnits="userSpaceOnUse"><stop offset="0" stop-color="#ceb98e"/><stop offset="0.16" stop-color="#dacaaa" stop-opacity="0.84"/><stop offset="0.41" stop-color="#eae1cf" stop-opacity="0.59"/><stop offset="0.64" stop-color="#f6f1e9" stop-opacity="0.36"/><stop offset="0.84" stop-color="#fdfbf9" stop-opacity="0.16"/><stop offset="1" stop-color="#fff" stop-opacity="0"/></linearGradient><linearGradient id="Degradado_sin_nombre_7" x1="490.67" y1="-3507.12" x2="597.17" y2="-3539.52" xlink:href="#Degradado_sin_nombre_6"/><linearGradient id="Degradado_sin_nombre_8" x1="502.96" y1="-3378.95" x2="712.82" y2="-3122.51" gradientTransform="translate(0 3873.07)" gradientUnits="userSpaceOnUse"><stop offset="0" stop-color="#fff" stop-opacity="0"/><stop offset="0.15" stop-color="#fbfdff" stop-opacity="0.09"/><stop offset="0.28" stop-color="#f1f8ff" stop-opacity="0.17"/><stop offset="0.41" stop-color="#deefff" stop-opacity="0.25"/><stop offset="0.53" stop-color="#c5e2ff" stop-opacity="0.32"/><stop offset="0.65" stop-color="#a4d1ff" stop-opacity="0.39"/><stop offset="0.77" stop-color="#7bbdff" stop-opacity="0.46"/><stop offset="0.89" stop-color="#4ca6ff" stop-opacity="0.53"/><stop offset="1" stop-color="#168aff" stop-opacity="0.6"/><stop offset="1" stop-color="#158aff" stop-opacity="0.6"/></linearGradient><linearGradient id="Degradado_sin_nombre_9" x1="471.43" y1="-3310.53" x2="474.24" y2="-3302.84" gradientTransform="translate(0 3873.07)" gradientUnits="userSpaceOnUse"><stop offset="0" stop-color="#fff" stop-opacity="0"/><stop offset="0.1" stop-color="#fafcff" stop-opacity="0.06"/><stop offset="0.23" stop-color="#eaf5ff" stop-opacity="0.14"/><stop offset="0.38" stop-color="#d1e8ff" stop-opacity="0.23"/><stop offset="0.53" stop-color="#add6ff" stop-opacity="0.32"/><stop offset="0.7" stop-color="#7fbfff" stop-opacity="0.42"/><stop offset="0.86" stop-color="#48a4ff" stop-opacity="0.52"/><stop offset="1" stop-color="#158aff" stop-opacity="0.6"/></linearGradient><linearGradient id="Degradado_sin_nombre_10" x1="424.16" y1="-3306.28" x2="432.01" y2="-3284.76" gradientTransform="translate(0 3873.07)" gradientUnits="userSpaceOnUse"><stop offset="0" stop-color="#fff" stop-opacity="0"/><stop offset="0.19" stop-color="#fcfeff" stop-opacity="0.11"/><stop offset="0.33" stop-color="#f3f9ff" stop-opacity="0.2"/><stop offset="0.45" stop-color="#e3f1ff" stop-opacity="0.27"/><stop offset="0.56" stop-color="#cde6ff" stop-opacity="0.34"/><stop offset="0.66" stop-color="#b0d7ff" stop-opacity="0.4"/><stop offset="0.76" stop-color="#8cc6ff" stop-opacity="0.46"/><stop offset="0.86" stop-color="#62b0ff" stop-opacity="0.52"/><stop offset="0.95" stop-color="#3299ff" stop-opacity="0.57"/><stop offset="1" stop-color="#158aff" stop-opacity="0.6"/></linearGradient><linearGradient id="Degradado_sin_nombre_11" x1="489.37" y1="-3333.35" x2="494.99" y2="-3317.97" xlink:href="#Degradado_sin_nombre_10"/><linearGradient id="Degradado_sin_nombre_12" x1="517.65" y1="-3376.63" x2="530.9" y2="-3340.34" xlink:href="#Degradado_sin_nombre_10"/><linearGradient id="Degradado_sin_nombre_13" x1="538.12" y1="-3412.14" x2="542.92" y2="-3398.98" xlink:href="#Degradado_sin_nombre_10"/><linearGradient id="Degradado_sin_nombre_14" x1="886.52" y1="-3392.9" x2="888.58" y2="-3387.27" gradientTransform="translate(-21.61 4018.52) rotate(-6.71)" xlink:href="#Degradado_sin_nombre_10"/><linearGradient id="Degradado_sin_nombre_15" x1="2197.26" y1="-3329.68" x2="2199.9" y2="-3322.43" gradientTransform="matrix(0.89, -0.45, 0.45, 0.89, 31.44, 4467.63)" xlink:href="#Degradado_sin_nombre_10"/><linearGradient id="Degradado_sin_nombre_16" x1="171.16" y1="-291.22" x2="171.16" y2="-370.92" gradientTransform="translate(0 1297.07)" gradientUnits="userSpaceOnUse"><stop offset="0" stop-color="#fff" stop-opacity="0"/><stop offset="0.14" stop-color="#fff" stop-opacity="0.14"/><stop offset="1" stop-color="#fff"/></linearGradient><linearGradient id="Degradado_sin_nombre_17" x1="171.16" y1="-290.97" x2="171.16" y2="-371.17" gradientTransform="translate(0 1297.07)" gradientUnits="userSpaceOnUse"><stop offset="0" stop-color="#fff" stop-opacity="0"/><stop offset="1" stop-color="#fff"/></linearGradient><linearGradient id="Degradado_sin_nombre_18" x1="244.06" y1="-291.22" x2="244.06" y2="-368.75" xlink:href="#Degradado_sin_nombre_16"/><linearGradient id="Degradado_sin_nombre_19" x1="244.06" y1="-290.97" x2="244.06" y2="-369" xlink:href="#Degradado_sin_nombre_17"/><linearGradient id="Degradado_sin_nombre_20" x1="535.56" y1="-272.4" x2="535.56" y2="-286.92" xlink:href="#Degradado_sin_nombre_16"/><linearGradient id="Degradado_sin_nombre_21" x1="516.02" y1="-263.85" x2="516.02" y2="-308.85" xlink:href="#Degradado_sin_nombre_16"/><linearGradient id="Degradado_sin_nombre_22" x1="541.41" y1="-265.13" x2="541.41" y2="-309.56" xlink:href="#Degradado_sin_nombre_16"/><linearGradient id="Degradado_sin_nombre_23" x1="528.72" y1="-293.77" x2="528.72" y2="-320.36" xlink:href="#Degradado_sin_nombre_16"/><linearGradient id="Degradado_sin_nombre_25" x1="516.02" y1="-263.6" x2="516.02" y2="-309.1" xlink:href="#Degradado_sin_nombre_17"/><linearGradient id="Degradado_sin_nombre_26" x1="541.41" y1="-264.88" x2="541.41" y2="-309.81" xlink:href="#Degradado_sin_nombre_17"/></defs><g id="Capa_2" data-name="Capa 2"><rect class="cls-1" width="800" height="1131.64"/></g><g id="Layer_1" data-name="Layer 1"><text class="cls-2" transform="translate(600.59 728.74)">Luz <tspan x="0" y="16.8">azul</tspan></text><g class="cls-3"><path class="cls-4" d="M377.9,735.8c1.7-8.9,3.6-17.7,5-26.6a269.85,269.85,0,0,0,3-26.9c.2-4.5.4-9,.4-13.5a121.75,121.75,0,0,0-.4-13.5,68.53,68.53,0,0,0-7.1-25.8,64.17,64.17,0,0,0-7.6-11.1c-1.4-1.7-2.9-3.4-4.4-5.1a42.65,42.65,0,0,1-4.1-5.4,17.72,17.72,0,0,1-1.5-3.1,13.5,13.5,0,0,1-.6-3.4,17,17,0,0,1,1.3-6.7,60.08,60.08,0,0,1,6.4-12,106.62,106.62,0,0,1,8.5-10.6c1.5-1.7,3.1-3.3,4.7-4.9.8-.8,1.7-1.5,2.5-2.3a11.32,11.32,0,0,1,1.3-1,2,2,0,0,1,1.5-.9,4.35,4.35,0,0,0-1.5.8,6.89,6.89,0,0,0-1.3,1.1,27.25,27.25,0,0,0-2.5,2.3c-1.6,1.6-3.1,3.2-4.6,4.9a104.67,104.67,0,0,0-8.2,10.7,50,50,0,0,0-6.2,11.9,18.24,18.24,0,0,0-1.2,6.5,11.34,11.34,0,0,0,.6,3.2,14,14,0,0,0,1.5,3,41.68,41.68,0,0,0,4.1,5.3c1.5,1.7,3,3.4,4.4,5.1a65.51,65.51,0,0,1,7.7,11.2c4.3,8,6.5,17.1,7.3,26.1a123.56,123.56,0,0,1,.4,13.6c0,4.5-.2,9-.5,13.6-.6,9-1.6,18-3.1,27"/></g><path class="cls-5" d="M331.9,420.3s-1.4,32.8-37.6,81-59.5,90.9-45.5,124.1c0,0-21.1,20.8-27.9,31.8,0,0-51.2,8.6-69.8,52.5s-20.6,52.9-20.6,52.9,13.8-93.7,36.2-133.3c35-61.9,30.3-49.5,83.2-104.6s73.1-68.1,63.1-105c0,0,5.6-14.2,9.4-15.3,2.1-.6,2.7,6.3,6.6,8.6C330.5,413.9,330.1,418.8,331.9,420.3Z"/><path class="cls-6" d="M-257.3,564.7"/><g class="cls-3"><path class="cls-4" d="M130.7,803.3a387.58,387.58,0,0,1,4.1-68.1c1.6-11.3,3.7-22.5,6.2-33.6s5.5-22.1,9-33a300.07,300.07,0,0,1,12.3-31.9c1.2-2.6,2.3-5.2,3.6-7.8l3.8-7.7c1.3-2.6,2.7-5,4.1-7.5l2.1-3.7,2.2-3.7a237.59,237.59,0,0,1,19.4-28.1l5.5-6.6c1.9-2.2,3.8-4.2,5.8-6.3l2.9-3.1c1-1,2-2,3.1-3l6.1-5.9a244.7,244.7,0,0,0-42.2,53.4l-2.2,3.7-2,3.7c-1.3,2.5-2.8,5-4,7.5l-3.8,7.7c-1.3,2.5-2.3,5.2-3.5,7.8A322,322,0,0,0,151.1,669c-3.5,10.8-6.6,21.8-9.2,32.9s-4.6,22.3-6.3,33.5-2.9,22.6-3.7,33.9A295.6,295.6,0,0,0,130.7,803.3Z"/></g><g class="cls-3"><path class="cls-4" d="M235.8,537.7c4.7-4.3,9.4-8.6,14.1-13s9.3-8.7,13.9-13.2c9.1-8.9,18.1-18,26.4-27.6A189.41,189.41,0,0,0,302.1,469a83.89,83.89,0,0,0,5-8.1,52.39,52.39,0,0,0,3.6-8.8,90.82,90.82,0,0,0,4.5-18.5,27,27,0,0,0-.4-9.4,18.89,18.89,0,0,0-1.9-4.4,26.94,26.94,0,0,0-3-3.7,26.73,26.73,0,0,1,3.1,3.6,14.58,14.58,0,0,1,2,4.4,25.84,25.84,0,0,1,.6,9.6,99.47,99.47,0,0,1-4.3,18.7c-.5,1.5-.9,3.1-1.5,4.6a34.89,34.89,0,0,1-2,4.4c-1.5,2.8-3.2,5.5-5,8.2a171.53,171.53,0,0,1-11.9,15.1c-8.4,9.6-17.4,18.7-26.6,27.5-4.6,4.4-9.3,8.7-14.1,13C245.4,529.3,240.6,533.5,235.8,537.7Z"/></g><path class="cls-7" d="M301.4,586.5s0-26.1,1.8-46.1,8.7-34.5,24.7-59.1S350,434.2,350,424.4c0,0,14.6,1.1,24,13.4s19.9,24.3,27.9,24.7a14.9,14.9,0,0,0-8.7,6.2c-3.3,5.1-21.4,41.1-28.3,46.8s-11.7,14-12.2,19.3c0,0-18.3,14.4-27.7,28.9S301.4,586.5,301.4,586.5Z"/><path class="cls-8" d="M362.7,607.9s-1.8,71.4,21,101.4c0,0,8.8-60.2-1.8-75.6S362.7,607.9,362.7,607.9Z"/><path class="cls-9" d="M193.94,711.79a137.64,137.64,0,0,1,6.61,137.39"/><polygon class="cls-10" points="189.04 715.76 189.26 703.68 199.5 709.67 189.04 715.76"/><g class="cls-11"><path class="cls-4" d="M255.2,616.4c6.7-4,13.3-8.2,19.8-12.5s12.9-8.7,19.2-13.3,12.4-9.4,18.3-14.5a151.27,151.27,0,0,0,16.4-16.6c5.1-5.9,10-12,15.3-17.7A86.31,86.31,0,0,1,362,526.6a70.46,70.46,0,0,1,21.6-8.9,54,54,0,0,1,5.8-1.1,57.33,57.33,0,0,1,5.8-.7c3.9-.4,7.8-.5,11.7-.6a115,115,0,0,0-11.7.8c-1.9.2-3.9.6-5.8.9s-3.8.7-5.7,1.3a68.26,68.26,0,0,0-21.3,9.1,90.72,90.72,0,0,0-17.6,15.2c-5.3,5.7-10.1,11.8-15.2,17.7A153,153,0,0,1,313,576.9c-5.9,5.1-12.1,9.9-18.4,14.4C282,600.3,268.8,608.6,255.2,616.4Z"/></g><path class="cls-12" d="M233.42,679.77s-16.28,0-24.88-9.08c0,0,10,4.44,12.35,2.44a32.66,32.66,0,0,0-.91-7.74c2.92,5.48,5.34,8.88,9.14,11.28Z"/><line class="cls-13" x1="228.43" y1="678.17" x2="282.03" y2="678.17"/><line class="cls-13" x1="248.99" y1="486.04" x2="310.59" y2="486.04"/><path class="cls-14" d="M494.9,359.7c11.6,4.4,23.2,8.6,34.8,12.7s23.4,7.8,35.3,11c5.9,1.6,11.9,3,17.9,4.1,3,.5,6,1,9,1.2a37.76,37.76,0,0,0,8.9-.2,10.19,10.19,0,0,0,3.7-1.4,3.54,3.54,0,0,0,1.4-3.1,12.22,12.22,0,0,0-1.2-4,30.3,30.3,0,0,0-2.4-3.8,65.5,65.5,0,0,0-6.1-6.9c-2.2-2.2-4.2-4.6-6.4-6.8l7.1,6a59.59,59.59,0,0,1,6.7,6.6,27.58,27.58,0,0,1,2.8,3.9,13.94,13.94,0,0,1,1.8,4.7,6.72,6.72,0,0,1-.3,2.8,5.86,5.86,0,0,1-1.7,2.4,11.83,11.83,0,0,1-4.7,2.2,35.69,35.69,0,0,1-9.7.8c-3.2-.1-6.3-.3-9.5-.7-6.3-.7-12.4-1.8-18.6-3-12.3-2.5-24.3-5.5-36.4-8.8s-24-6.8-35.9-10.5Z"/><polygon class="cls-15" points="492.8 374.8 479.7 359.8 499.3 356 492.8 374.8"/><g id="light"><path class="cls-16" d="M563.79,440.08c1-2-1-6,0-9,6.9-16.9,10.3-34.2,11.7-51.7l116,374.6-41.7,11.3-9,1.4-64.1,20.9-131.5-207.9h0c3.7-3.1,8.3-4.5,11.6-8.6,4-5,16,2,20-3,3-4,6-12,12-12-1-3,2-4,3-5,2-1,4-1,5-2,2-7-1-19,6-20,10,0,25,6,28-6,4-17-2-34,4-49,1-3,10-10,10-17Z"/><g class="cls-17"><path class="cls-18" d="M463.09,568.78s9.5,2.7,13.2-.2,3.8-11.4,3.8-11.4A19.54,19.54,0,0,1,463.09,568.78Z"/><path class="cls-19" d="M398.49,570s14.5,12.2,27.6,13.6,13.3,2.6,27.6-9.4C453.59,574.08,431.39,588,398.49,570Z"/><path class="cls-20" d="M483,557.18s11.2.1,12.3-9.1a68.59,68.59,0,0,1,3.9-16.4,31.94,31.94,0,0,0-6.7,15.2A12,12,0,0,1,483,557.18Z"/><path class="cls-21" d="M508.69,530.08s9.6,3.9,16.8,1.6,7.1-11.4,6.8-26.3a236,236,0,0,1,.7-25.1s-4.5,13.9-4.7,27.8S529.29,528.78,508.69,530.08Z"/><path class="cls-22" d="M534,476.28a22.31,22.31,0,0,0,11.5-21.8A51.47,51.47,0,0,1,534,476.28Z"/><path class="cls-23" d="M482,533.68s-1.1,13.4-37.8,24.9"/><path class="cls-24" d="M522.19,483.88s4.6,16.7-34.8,46.8"/></g></g><path class="cls-25" d="M191.52,1005.85h0s.76-10.78-1.61-17.24-5-6.93-8.77-10.37-7.76-6.64-7.7-9.3.89-5.21.95-7.17,1.22-2.56,3.41-2.56,4.76,1.08,6.28.27.37-3,.81-3.7,1.54-.88,1.39-1.24a1.6,1.6,0,0,0-1.52-1s1.65-1,1.65-1.45a8.31,8.31,0,0,0-1.15-1.94s2.82-1.26,2.6-2.21a6.45,6.45,0,0,0-1.79-2.6c-.9-1-2.45-2.36-2.54-3.28a16.16,16.16,0,0,1,.33-2.49,5.25,5.25,0,0,0-.42-2.8l-.57-1.28a33.6,33.6,0,0,0-2.16-4.17c-.84-1.17-3.34-5.18-12.13-5.14a13.08,13.08,0,0,0-11.64,5.06,13.78,13.78,0,0,0-1.29,15.05c1.54,2.55,5.6,5.53,4.74,12.14s-1.87,8.84-5.9,17.81c-7,15.67-2.3,28-1.52,29.57"/><path class="cls-26" d="M191.52,1005.85h0s.76-10.78-1.61-17.24-5-6.93-8.77-10.37-7.76-6.64-7.7-9.3.89-5.21.95-7.17,1.22-2.56,3.41-2.56,4.76,1.08,6.28.27.37-3,.81-3.7,1.54-.88,1.39-1.24a1.6,1.6,0,0,0-1.52-1s1.65-1,1.65-1.45a8.31,8.31,0,0,0-1.15-1.94s2.82-1.26,2.6-2.21a6.45,6.45,0,0,0-1.79-2.6c-.9-1-2.45-2.36-2.54-3.28a16.16,16.16,0,0,1,.33-2.49,5.25,5.25,0,0,0-.42-2.8l-.57-1.28a33.6,33.6,0,0,0-2.16-4.17c-.84-1.17-3.34-5.18-12.13-5.14a13.08,13.08,0,0,0-11.64,5.06,13.78,13.78,0,0,0-1.29,15.05c1.54,2.55,5.6,5.53,4.74,12.14s-1.87,8.84-5.9,17.81c-7,15.67-2.3,28-1.52,29.57"/><path class="cls-27" d="M165.9,953.07a60.05,60.05,0,0,1-1.06,11.1A99.34,99.34,0,0,1,162.23,975l-1.65,5.28q-.78,2.59-1.3,5.24a35.51,35.51,0,0,0-.52,10.58,62,62,0,0,0,2.19,10.58c.48,1.77,1,3.53,1.51,5.3s1,3.52,1.5,5.38a40.86,40.86,0,0,1,1.32,11.23,27.06,27.06,0,0,1-.84,5.6,14.26,14.26,0,0,1-2.37,5.06,11.28,11.28,0,0,0,1-2.56,17.33,17.33,0,0,0,.55-2.67,28.91,28.91,0,0,0,.18-5.42A45.26,45.26,0,0,0,161.7,1018c-2.24-6.93-5-13.93-5.92-21.59a36.72,36.72,0,0,1,.73-11.46A77.51,77.51,0,0,1,160,974.31c1.25-3.44,2.4-6.93,3.4-10.46A96.73,96.73,0,0,0,165.9,953.07Z"/><path class="cls-28" d="M257.4,1005.85h.1s1.9-11-2.93-19.55-11.46-8.62-12.13-16.81c-.22-2.66,3.66-3.82,4.8-5.41s2.44-1.44,4.26-.21,3.34,3.56,5.05,3.74,2-2.3,2.74-2.61,1.77.13,1.85-.25a1.59,1.59,0,0,0-.72-1.65s1.94.07,2.17-.28a8.06,8.06,0,0,0,.13-2.25s3,.53,3.39-.38a6.36,6.36,0,0,0,0-3.16c-.18-1.34-.71-3.33-.27-4.14s1.23-1.27,1.67-1.88a5.29,5.29,0,0,0,1.22-2.56l.25-1.38a33.41,33.41,0,0,0,.55-4.67c0-1.44.14-6.16-7.17-11A13.08,13.08,0,0,0,249.85,929a13.8,13.8,0,0,0-9.5,11.75c-.15,3,1.55,7.72-2.87,12.71,0,0-11.55,10.35-14.89,17.93S218,984.61,219,990s2.29,12.28,2.29,15.81"/><path class="cls-29" d="M257.4,1005.85h.1s1.9-11-2.93-19.55-11.46-8.62-12.13-16.81c-.22-2.66,3.66-3.82,4.8-5.41s2.44-1.44,4.26-.21,3.34,3.56,5.05,3.74,2-2.3,2.74-2.61,1.77.13,1.85-.25a1.59,1.59,0,0,0-.72-1.65s1.94.07,2.17-.28a8.06,8.06,0,0,0,.13-2.25s3,.53,3.39-.38a6.36,6.36,0,0,0,0-3.16c-.18-1.34-.71-3.33-.27-4.14s1.23-1.27,1.67-1.88a5.29,5.29,0,0,0,1.22-2.56l.25-1.38a33.41,33.41,0,0,0,.55-4.67c0-1.44.14-6.16-7.17-11A13.08,13.08,0,0,0,249.85,929a13.8,13.8,0,0,0-9.5,11.75c-.15,3,1.55,7.72-2.87,12.71,0,0-11.55,10.35-14.89,17.93S218,984.61,219,990s2.29,12.28,2.29,15.81"/><path class="cls-27" d="M245.46,951.76a11.09,11.09,0,0,1-1.77,5.83,14.46,14.46,0,0,1-4.47,4.37l-2.61,1.5-1.15.84-1.08.94a24.44,24.44,0,0,0-3.65,4.46,31.12,31.12,0,0,0-2.59,5.16,30.81,30.81,0,0,0-1.48,5.58,36.56,36.56,0,0,0-.12,11.58,68.42,68.42,0,0,0,2.64,11.53c1.12,3.82,2.62,7.59,3.54,11.64.2,1,.46,2,.58,3.06l.22,1.54c.06.52.06,1,.1,1.56a24.83,24.83,0,0,1,0,3.11,26.29,26.29,0,0,1-.27,3.08,50.65,50.65,0,0,1-3.25,11.75,67.43,67.43,0,0,0,1.78-11.87,35.62,35.62,0,0,0-1.43-11.63c-1.13-3.76-2.66-7.49-4-11.36a67.32,67.32,0,0,1-2.9-12,38.3,38.3,0,0,1,.31-12.5,34.36,34.36,0,0,1,1.83-6,28.31,28.31,0,0,1,3.09-5.5,24.78,24.78,0,0,1,4.29-4.63l1.28-.94c.45-.29.91-.56,1.36-.84l1.44-.69,1.32-.6a13.9,13.9,0,0,0,4.52-3.58A11.69,11.69,0,0,0,245.46,951.76Z"/><line class="cls-30" x1="237.37" y1="962.09" x2="277.47" y2="921.99"/><text class="cls-31" transform="translate(268.43 917.84)">45°</text><text class="cls-31" transform="translate(629.73 214.77)">45°</text><line class="cls-30" x1="566.16" y1="290.36" x2="635.02" y2="221.49"/><path class="cls-32" d="M539.75,1017.56l-.23-.42a26.57,26.57,0,0,1-1.58-2.37,13.91,13.91,0,0,1-2.17-1.41s-3.26-1.29-4.58-3.21a61.57,61.57,0,0,0-.34,7.81c.22,2.22.15,6.71.15,6.71h6.43c.33-1.36,2.9-2.53,2.9-4.71A5.19,5.19,0,0,0,539.75,1017.56Z"/><path class="cls-33" d="M505.71,1015.4s.27-3.46.27-4.44a3.49,3.49,0,0,1,.6-2.6c.65-.65.16-3.25,1.14-4.22s-.16-.76.49-2.22,1.68-1.68,2-3,.49-2.76,4.66-6.39,5.52-4.33,6.61-4.33,2.6.11,3.14,2.87,1,2.6,1,4.71-.44,5.74-.44,5.74,1.73,2.06,1.73,3.41v8.93s.87,4.49-1.79,7.15-4.93,5.58-8.12,5.58c0,0-4.76,6.61-8.66,6.61s-2.92-3.79-2.92-3.79S504.3,1018.64,505.71,1015.4Z"/><g class="cls-34"><path class="cls-35" d="M530.43,1000.25c-.15-.67-1.2-5.33-.64-7.65.6-2.49,1.52-6.77,6.88-4.39s3.93,2.9,5.58,4.55a44.66,44.66,0,0,1,4.68,5.79c2.52,3.36,3.44,5,3.65,8.88s1.62.92,1.62,5,.81,5.9.81,7.9-.7,4.17-.43,4.87-.57,3.65.16,4.39.92,3-2.06,2.11c0,0-6.27-1.66-8.61-5.3-1.72.43-3.78.67-4.6-.39a1.27,1.27,0,0,1-.3-1.14c.33-1.36,2.9-2.53,2.9-4.71a5.32,5.32,0,0,0-.57-2.41,4.16,4.16,0,0,0-.23-.42,26.57,26.57,0,0,1-1.58-2.37,13.91,13.91,0,0,1-2.17-1.41s-3.26-1.29-4.58-3.21a4.11,4.11,0,0,1-.4-.74,13.49,13.49,0,0,1-.5-7.25c.24-1.45.34-1.88.37-2v-.17Z"/></g><path class="cls-36" d="M529.15,976.71a36.4,36.4,0,0,1,.34,8.34,45.54,45.54,0,0,0,.14,12.19l3.63,2.7-2.83,3.36-2.74-2.44-2.44,2.44-1.08-3a5.06,5.06,0,0,0,2.17-4.28c0-3-.33-6.6-.33-10.94,0-2.95-.21-5.85-.21-8.34"/><path class="cls-32" d="M539.75,1017.56l-.23-.42a26.57,26.57,0,0,1-1.58-2.37,13.91,13.91,0,0,1-2.17-1.41s-3.26-1.29-4.58-3.21a61.57,61.57,0,0,0-.34,7.81c.22,2.22.15,6.71.15,6.71h6.43c.33-1.36,2.9-2.53,2.9-4.71A5.19,5.19,0,0,0,539.75,1017.56Z"/><path class="cls-37" d="M505.71,1015.4s.27-3.46.27-4.44a3.49,3.49,0,0,1,.6-2.6c.65-.65.16-3.25,1.14-4.22s-.16-.76.49-2.22,1.68-1.68,2-3,.49-2.76,4.66-6.39,5.52-4.33,6.61-4.33,2.6.11,3.14,2.87,1,2.6,1,4.71-.44,5.74-.44,5.74,1.73,2.06,1.73,3.41v8.93s.87,4.49-1.79,7.15-4.93,5.58-8.12,5.58c0,0-4.76,6.61-8.66,6.61s-2.92-3.79-2.92-3.79S504.3,1018.64,505.71,1015.4Z"/><g class="cls-38"><path class="cls-39" d="M530.43,1000.25c-.15-.67-1.2-5.33-.64-7.65.6-2.49,1.52-6.77,6.88-4.39s3.93,2.9,5.58,4.55a44.66,44.66,0,0,1,4.68,5.79c2.52,3.36,3.44,5,3.65,8.88s1.62.92,1.62,5,.81,5.9.81,7.9-.7,4.17-.43,4.87-.57,3.65.16,4.39.92,3-2.06,2.11c0,0-6.27-1.66-8.61-5.3-1.72.43-3.78.67-4.6-.39a1.27,1.27,0,0,1-.3-1.14c.33-1.36,2.9-2.53,2.9-4.71a5.32,5.32,0,0,0-.57-2.41,4.16,4.16,0,0,0-.23-.42,26.57,26.57,0,0,1-1.58-2.37,13.91,13.91,0,0,1-2.17-1.41s-3.26-1.29-4.58-3.21a4.11,4.11,0,0,1-.4-.74,13.49,13.49,0,0,1-.5-7.25c.24-1.45.34-1.88.37-2v-.17Z"/></g><path class="cls-36" d="M529.15,976.71a36.4,36.4,0,0,1,.34,8.34,45.54,45.54,0,0,0,.14,12.19l3.63,2.7-2.83,3.36-2.74-2.44-2.44,2.44-1.08-3a5.06,5.06,0,0,0,2.17-4.28c0-3-.33-6.6-.33-10.94,0-2.95-.21-5.85-.21-8.34"/><rect class="cls-40" x="503.9" y="972.47" width="50.28" height="25.79"/><line class="cls-30" x1="502.7" y1="998.78" x2="557.01" y2="998.78"/><text class="cls-31" transform="translate(516 987.42)">30%</text><text class="cls-41" transform="translate(544.99 571.71)">Visión<tspan x="0" y="19.2">Borrosa</tspan></text><text class="cls-41" transform="translate(471.59 170.47)">dolores<tspan x="0" y="19.2">de cabeza</tspan><tspan x="0" y="38.4">cronicos</tspan></text><text class="cls-41" transform="translate(331.9 62.54)">PROBLEMAS COMÚNES</text><text class="cls-2" transform="translate(291 672.58)">Daño en <tspan x="0" y="16.8">el nervio</tspan></text><text class="cls-41" transform="translate(142.46 479.07)">Estrés en la <tspan x="0" y="19.2">espina-c</tspan></text><text class="cls-41" transform="translate(124.32 871.06)">Curvatura de <tspan x="0" y="19.2">la columna</tspan></text><text class="cls-2" transform="translate(615.24 404.36)">Dificultad para <tspan x="0" y="16.8">dar vuelta</tspan><tspan x="0" y="33.6">la cabeza</tspan></text><text class="cls-2" transform="translate(122.94 571.38)">Musculos <tspan x="0" y="16.8">tensos</tspan></text><text class="cls-2" transform="translate(398.49 672.58)">Musculos <tspan x="0" y="16.8">debiles</tspan></text><text class="cls-2" transform="translate(130.5 1058.83)">Curvatura <tspan x="0" y="16.8">normal</tspan></text><text class="cls-2" transform="translate(220.9 1058.83)">Curvatura <tspan x="0" y="16.8">extrema</tspan></text><text class="cls-2" transform="translate(593.38 1003.3)">Perdida de <tspan x="0" y="16.8">capacidad </tspan><tspan x="0" y="33.6">pulmonar</tspan></text><text class="cls-42" transform="translate(165.9 108.07)">El exesivo uso de telefonos celulares puede aumentar <tspan x="0" y="19.2">el riesgo de desarrollar problemas de salud</tspan></text></g></svg>